<svg width="102" height="101" viewBox="0 0 102 101" fill="none" xmlns="http://www.w3.org/2000/svg">
<path d="M91.1426 81.4707L72.7148 63.2236C75.1719 59.2126 76.4004 54.9056 76.4004 50.3027C76.4004 44.4505 74.5908 39.2559 70.9717 34.7188C67.3525 30.1816 62.7539 27.1898 57.1758 25.7432V0C65.543 1.05208 73.1299 3.91243 79.9365 8.58105C86.7432 13.2497 92.1221 19.2498 96.0732 26.5815C100.024 33.9132 102 41.8203 102 50.3027C102 61.8757 98.3809 72.265 91.1426 81.4707ZM26.0977 43.8916H0C1.46094 32.4502 6.3252 22.6362 14.5928 14.4497C22.8604 6.26318 32.7715 1.44661 44.3262 0V25.7432C39.877 26.9268 36.0088 29.146 32.7217 32.4009C29.4346 35.6558 27.2266 39.486 26.0977 43.8916ZM25.998 56.6152C27.459 62.1387 30.4805 66.6922 35.0625 70.2759C39.6445 73.8595 44.8906 75.6514 50.8008 75.6514C55.4492 75.6514 59.7988 74.4349 63.8496 72.002L82.2773 90.249C72.9805 97.4163 62.4883 101 50.8008 101C42.2344 101 34.249 99.0438 26.8447 95.1313C19.4404 91.2189 13.3809 85.8927 8.66602 79.1528C3.95117 72.4129 1.0625 64.9004 0 56.6152H25.998Z" fill="#403360"/>
</svg>
