<svg width="79" height="100" viewBox="0 0 79 100" fill="none" xmlns="http://www.w3.org/2000/svg">
<path d="M53.5422 71.3C68.4288 74.165 79 81.455 79 90V100H0V90C0 81.455 10.5712 74.165 25.4578 71.3L39.5 95L53.5422 71.3ZM19.75 30H59.25V40C59.25 51.04 50.402 60 39.5 60C28.598 60 19.75 51.04 19.75 40V30ZM19.75 25L21.7744 4.5C21.8968 3.26668 22.4672 2.12337 23.375 1.29188C24.2827 0.460384 25.4632 -1.55717e-05 26.6872 3.95006e-10H52.3128C53.5368 -1.55717e-05 54.7173 0.460384 55.625 1.29188C56.5328 2.12337 57.1032 3.26668 57.2256 4.5L59.25 25H19.75ZM39.5 5H34.5625V10H29.625V15H34.5625V20H39.5V15H44.4375V10H39.5V5Z" fill="white"/>
</svg>
